HIERARCHY
ROOT Hips
{
	OFFSET 0.00 0.00 0.00
	CHANNELS 6 Xposition Yposition Zposition Xrotation Yrotation Zrotation
	JOINT RightUpLeg
	{
		OFFSET -3.76699 0.00000 0.00000
		CHANNELS 3 Xrotation Yrotation Zrotation
		JOINT RightLeg
		{
			OFFSET 0.00000 -18.01768 0.00000
			CHANNELS 3 Xrotation Yrotation Zrotation
			JOINT RightFoot
			{
				OFFSET 0.00000 -16.88108 0.00000
				CHANNELS 3 Xrotation Yrotation Zrotation
				JOINT RightToeBase
				{
					OFFSET 0.00000 -1.49359 5.57418
					CHANNELS 3 Xrotation Yrotation Zrotation
					End Site
					{
						OFFSET 0.00000 0.00000 2.95275
					}
				}
			}
		}
	}
	JOINT LeftUpLeg
	{
		OFFSET 3.76699 0.00000 0.00000
		CHANNELS 3 Xrotation Yrotation Zrotation
		JOINT LeftLeg
		{
			OFFSET 0.00000 -18.01768 0.00000
			CHANNELS 3 Xrotation Yrotation Zrotation
			JOINT LeftFoot
			{
				OFFSET 0.00000 -16.88108 0.00000
				CHANNELS 3 Xrotation Yrotation Zrotation
				JOINT LeftToeBase
				{
					OFFSET 0.00000 -1.49359 5.57418
					CHANNELS 3 Xrotation Yrotation Zrotation
					End Site
					{
						OFFSET 0.00000 0.00000 2.95275
					}
				}
			}
		}
	}
	JOINT Spine
	{
		OFFSET 0.00000 7.77970 0.00000
		CHANNELS 3 Xrotation Yrotation Zrotation
		JOINT RightShoulder
		{
			OFFSET 0.00000 10.94176 0.00000
			CHANNELS 3 Xrotation Yrotation Zrotation
			JOINT RightArm
			{
				OFFSET -7.70894 0.00000 0.00000
				CHANNELS 3 Xrotation Yrotation Zrotation
				JOINT RightForeArm
				{
					OFFSET -11.52135 0.00000 0.00000
					CHANNELS 3 Yrotation Zrotation Xrotation
					JOINT RightHand
					{
						OFFSET -10.17590 0.00000 0.00000
						CHANNELS 3 Xrotation Yrotation Zrotation
						End Site
						{
							OFFSET -3.93700 0.00000 0.00000
						}
						JOINT RightHandThumb1
						{
							OFFSET 0.00000 0.00000 0.00000
							CHANNELS 3 Xrotation Zrotation Yrotation
							End Site
							{
								OFFSET 0.00000 0.00000 3.93700
							}
						}
					}
				}
			}
		}
		JOINT LeftShoulder
		{
			OFFSET 0.00000 10.94176 0.00000
			CHANNELS 3 Xrotation Yrotation Zrotation
			JOINT LeftArm
			{
				OFFSET 7.70894 0.00000 0.00000
				CHANNELS 3 Xrotation Yrotation Zrotation
				JOINT LeftForeArm
				{
					OFFSET 11.52135 0.00000 0.00000
					CHANNELS 3 Yrotation Zrotation Xrotation
					JOINT LeftHand
					{
						OFFSET 10.17590 0.00000 0.00000
						CHANNELS 3 Xrotation Yrotation Zrotation
						End Site
						{
							OFFSET 3.93700 0.00000 0.00000
						}
						JOINT LeftHandThumb1
						{
							OFFSET 0.00000 0.00000 0.00000
							CHANNELS 3 Xrotation Zrotation Yrotation
							End Site
							{
								OFFSET 0.00000 0.00000 3.93700
							}
						}
					}
				}
			}
		}
		JOINT Head
		{
			OFFSET 0.00000 16.64604 0.00000
			CHANNELS 3 Xrotation Yrotation Zrotation
			End Site
			{
				OFFSET 0.00000 4.52755 0.00000
			}
		}
	}
}
MOTION
Frames: 18
Frame Time: 0.008333
 0.3333 37.1639 5.6453 -14.4207 22.0539 16.1622 20.3201 -15.1676 0.9287 -5.9699 -0.0000 -0.0000 -13.7435 -27.9636 -5.0921 7.3313 0.0000 0.0000 -20.9982 3.9762 30.4165 3.9508 0.0000 0.0000 39.4226 34.8977 -37.1656 -2.0105 -0.0000 -0.0000 23.9616 -7.9568 4.4405 14.0360 0.4055 -19.0655 -49.3493 34.8559 78.3721 85.0424 0.0000 -1.2313 1.4008 2.8253 -26.3873 32.8623 0.0000 -24.3270 40.6034 10.5987 -8.1075 -36.2162 -19.0858 -72.8418 -82.5506 -0.0000 30.9075 -4.1699 23.7962 10.2424 33.1476 -0.0000 26.2537 15.1009 -2.7535 -7.5291
 0.3477 37.1624 5.6511 -14.6978 22.1022 16.3032 20.6527 -15.3332 0.9482 -6.1065 -0.0000 -0.0000 -13.6953 -28.0035 -5.0974 7.4320 0.0000 0.0000 -21.2817 4.4365 30.3269 4.7413 0.0000 -0.0000 39.2612 34.6795 -36.9006 -2.0728 -0.0000 -0.0000 24.2895 -7.9114 4.5093 14.0412 0.2789 -18.9504 -49.3449 34.9341 78.1452 85.1058 0.0000 -1.0267 1.3458 2.6737 -26.7302 32.8623 0.0000 -24.3270 40.5050 10.6339 -8.2133 -36.3313 -19.3604 -72.8773 -82.3705 -0.0000 30.9467 -4.1220 23.8222 10.1166 33.1476 -0.0000 26.2537 15.0111 -2.9033 -7.4648
 0.3611 37.1624 5.6577 -14.9329 22.0990 16.4099 20.9231 -15.5082 0.9604 -6.1847 -0.0000 -0.0000 -13.6567 -27.9511 -5.0786 7.4740 -0.0000 0.0000 -21.5137 4.8424 30.2807 5.6015 0.0000 -0.0000 39.0744 34.4376 -36.5778 -2.0393 -0.0000 -0.0000 24.5721 -7.8275 4.5696 14.0992 0.1525 -18.8853 -49.3945 34.9610 78.0139 85.1438 0.0000 -0.6474 1.2733 2.4803 -27.1853 32.8623 0.0000 -24.3270 40.2961 10.6357 -8.2450 -36.3103 -19.5502 -72.9346 -82.2123 -0.0000 31.0719 -4.0372 23.8033 9.9193 33.1476 -0.0000 26.2537 14.9918 -3.0271 -7.3850
 0.3729 37.1631 5.6635 -15.1029 22.0350 16.4773 21.1091 -15.6301 0.9480 -6.1987 -0.0000 0.0000 -13.6392 -27.8614 -4.9961 7.4564 0.0000 -0.0000 -21.7714 5.2920 30.2734 6.5170 0.0000 0.0000 38.8835 34.1169 -36.1079 -1.8045 0.0000 0.0000 24.7784 -7.7000 4.6285 14.1073 0.0868 -18.9244 -49.3665 34.7972 78.0079 85.1867 0.0000 -0.5188 1.2929 2.5203 -27.1680 32.8623 0.0000 -24.3270 40.1465 10.6704 -8.3380 -36.3666 -19.8579 -72.9598 -81.9697 -0.0000 31.2048 -4.0018 23.7551 9.8521 33.1476 -0.0000 26.2537 15.0682 -3.1113 -7.3694
 0.3830 37.1652 5.6688 -15.1837 21.9145 16.5052 21.1901 -15.6592 0.9015 -6.1638 0.0000 -0.0000 -13.6381 -27.7673 -4.9353 7.4656 -0.0000 0.0000 -22.0280 5.7342 30.2864 7.4997 -0.0000 0.0000 38.6963 33.7588 -35.8411 -1.8749 0.0000 0.0000 24.8705 -7.5254 4.6657 14.1583 0.0389 -19.0316 -49.3477 34.5577 78.0876 85.2156 0.0000 -0.4647 1.3235 2.5849 -27.1240 32.8623 0.0000 -24.3270 40.0734 10.6947 -8.4517 -36.4644 -20.1870 -72.9780 -81.7111 -0.0000 31.3695 -3.9506 23.7567 9.7274 33.1476 -0.0000 26.2537 15.2403 -3.2228 -7.4108
 0.3925 37.1688 5.6735 -15.1897 21.7552 16.5145 21.1740 -15.6126 0.8124 -6.0770 -0.0000 0.0000 -13.6629 -27.6621 -4.8977 7.4770 0.0000 -0.0000 -22.2777 6.1649 30.2935 8.5094 -0.0000 -0.0000 38.6229 33.3546 -35.9826 -1.9316 -0.0000 -0.0000 24.8662 -7.3395 4.6566 14.2164 0.0357 -19.1412 -49.3176 34.2875 78.2175 85.2260 0.0000 -0.4534 1.3501 2.6408 -27.0907 32.8623 0.0000 -24.3270 40.0332 10.7020 -8.5583 -36.5315 -20.4574 -72.9772 -81.5231 -0.0000 31.4924 -3.8454 23.6814 9.5003 33.1476 -0.0000 26.2537 15.4895 -3.3133 -7.4581
 0.4019 37.1730 5.6799 -15.1575 21.5675 16.5108 21.1036 -15.5134 0.6988 -5.9404 -0.0000 -0.0000 -13.7170 -27.5587 -4.8459 7.4403 0.0000 -0.0000 -22.5676 6.6066 30.3010 9.6232 -0.0000 -0.0000 38.5451 32.8993 -36.0593 -1.9012 -0.0000 -0.0000 24.7995 -7.1275 4.6117 14.2328 0.0649 -19.2296 -49.2249 34.0116 78.3547 85.2204 0.0000 -0.4370 1.3442 2.6223 -27.1531 32.8623 0.0000 -24.3270 39.9617 10.6328 -8.5663 -36.4766 -20.5849 -72.9869 -81.4636 -0.0000 31.7616 -3.7134 23.7485 9.1549 33.1476 -0.0000 26.2537 15.8219 -3.3820 -7.4498
 0.4119 37.1805 5.6852 -15.1143 21.3650 16.5366 20.9936 -15.3873 0.5335 -5.7620 -0.0000 0.0000 -13.7921 -27.4641 -4.7945 7.4297 -0.0000 0.0000 -22.8693 7.0690 30.2682 10.8643 -0.0000 -0.0000 38.5396 32.4352 -36.3026 -2.3030 -0.0000 -0.0000 24.7156 -6.9589 4.5166 14.3111 0.1086 -19.3150 -49.1985 33.7777 78.4911 85.1867 0.0000 -0.4717 1.3634 2.6576 -27.1710 32.8623 0.0000 -24.3270 39.9676 10.5730 -8.6150 -36.4754 -20.7287 -72.9508 -81.4290 -0.0000 31.9884 -3.5611 23.5770 8.8437 33.1476 -0.0000 26.2537 16.1779 -3.4152 -7.4561
 0.4238 37.1883 5.6916 -15.0709 21.2039 16.5816 20.8802 -15.3112 0.3644 -5.5925 -0.0000 0.0000 -13.8556 -27.3576 -4.7445 7.3899 0.0000 0.0000 -23.2555 7.5691 30.2076 12.2311 0.0000 -0.0000 38.5769 31.9736 -36.7253 -2.2989 -0.0000 -0.0000 24.6076 -6.8742 4.4039 14.3695 0.1682 -19.3689 -49.1636 33.6267 78.5926 85.1367 0.0000 -0.5315 1.3516 2.6413 -27.1123 32.8623 0.0000 -24.3270 39.9964 10.5217 -8.6572 -36.4432 -20.8522 -72.9061 -81.4715 -0.0000 32.2263 -3.4629 23.5133 8.6246 33.1476 -0.0000 26.2537 16.5300 -3.4152 -7.4219
 0.4363 37.1969 5.6991 -15.0520 21.0328 16.6661 20.7982 -15.1982 0.1672 -5.4419 0.0000 -0.0000 -13.9308 -27.2796 -4.7113 7.3958 -0.0000 -0.0000 -23.7165 8.1973 30.1404 13.7718 -0.0000 -0.0000 38.5796 31.4914 -37.0912 -2.3554 0.0000 0.0000 24.5356 -6.8461 4.2423 14.4647 0.2360 -19.3895 -49.2362 33.5198 78.7336 85.0417 0.0000 -0.5640 1.3512 2.6316 -27.1899 32.8623 0.0000 -24.3270 40.0756 10.4867 -8.6986 -36.4284 -20.9516 -72.8367 -81.5734 -0.0000 32.3563 -3.3363 23.4496 8.3341 33.1476 -0.0000 26.2537 16.8296 -3.3954 -7.3882
 0.4481 37.2061 5.7085 -15.0593 20.8907 16.7821 20.7585 -15.1072 -0.0273 -5.3358 0.0000 -0.0000 -14.0046 -27.2403 -4.7167 7.3942 0.0000 0.0000 -24.2293 8.8456 30.0678 15.4704 -0.0000 0.0000 38.6941 31.0012 -37.6237 -2.4924 0.0000 0.0000 24.4877 -6.8925 4.0514 14.4733 0.3547 -19.3619 -49.2402 33.4628 78.8606 84.9297 0.0000 -0.5889 1.3866 2.6963 -27.2285 32.8623 0.0000 -24.3270 40.1870 10.4793 -8.7335 -36.4265 -21.0654 -72.7669 -81.7116 -0.0000 32.4730 -3.2665 23.2563 8.2249 33.1476 -0.0000 26.2537 17.0761 -3.3677 -7.3328
 0.4609 37.2146 5.7205 -15.1008 20.7620 16.9208 20.7456 -15.0816 -0.2191 -5.2215 -0.0000 -0.0000 -14.0775 -27.1890 -4.7093 7.4149 -0.0000 -0.0000 -24.7919 9.5740 30.0236 17.3214 -0.0000 -0.0000 38.6263 30.3858 -37.8324 -2.7535 0.0000 0.0000 24.4767 -6.9831 3.8439 14.5121 0.4317 -19.3179 -49.3299 33.5048 78.9670 84.7933 0.0000 -0.5810 1.3978 2.7113 -27.2869 32.8623 0.0000 -24.3270 40.3009 10.4739 -8.7550 -36.4023 -21.1591 -72.6761 -81.9010 -0.0000 32.5200 -3.2012 23.0597 8.1264 33.1476 -0.0000 26.2537 17.2503 -3.3395 -7.2667
 0.4722 37.2212 5.7354 -15.1582 20.6361 17.0466 20.7611 -15.0891 -0.3781 -5.1177 -0.0000 -0.0000 -14.1520 -27.1191 -4.7417 7.4253 -0.0000 0.0000 -25.4887 10.4411 30.0574 19.3517 0.0000 0.0000 38.4378 29.7116 -37.7025 -2.8733 0.0000 0.0000 24.4968 -7.0722 3.6602 14.5211 0.4883 -19.2722 -49.4207 33.5861 79.0700 84.6605 0.0000 -0.5703 1.4246 2.7597 -27.3169 32.8623 0.0000 -24.3270 40.4459 10.5126 -8.7886 -36.4537 -21.3104 -72.6208 -82.0764 -0.0000 32.5672 -3.1609 23.0541 8.0270 33.1476 -0.0000 26.2537 17.3328 -3.3221 -7.2320
 0.4813 37.2259 5.7505 -15.2313 20.5389 17.1552 20.8145 -15.1237 -0.4918 -5.0569 -0.0000 -0.0000 -14.1973 -27.0509 -4.7879 7.3862 -0.0000 -0.0000 -26.2582 11.3227 30.1513 21.5550 0.0000 -0.0000 38.0734 28.9392 -37.2590 -2.8604 -0.0000 -0.0000 24.5310 -7.1540 3.5126 14.5437 0.5105 -19.2238 -49.5270 33.7019 79.1459 84.5435 0.0000 -0.5691 1.4375 2.7797 -27.3593 32.8623 0.0000 -24.3270 40.5796 10.5672 -8.8404 -36.5309 -21.5337 -72.5413 -82.1924 -0.0000 32.5945 -3.1015 22.7711 7.9692 33.1476 -0.0000 26.2537 17.3750 -3.3351 -7.1983
 0.4905 37.2286 5.7645 -15.3051 20.4498 17.2519 20.8902 -15.1430 -0.5851 -5.0360 -0.0000 -0.0000 -14.2472 -27.0163 -4.8447 7.4038 -0.0000 -0.0000 -27.1116 12.2434 30.3099 23.9253 -0.0000 0.0000 37.7220 28.1058 -36.7343 -2.8727 -0.0000 0.0000 24.5808 -7.2295 3.3873 14.5289 0.5035 -19.1705 -49.6386 33.8418 79.2215 84.4288 0.0000 -0.5975 1.4546 2.8321 -27.1997 32.8623 0.0000 -24.3270 40.6194 10.6094 -8.8430 -36.5109 -21.7406 -72.4953 -82.3600 -0.0000 32.5662 -3.0598 22.7478 7.8708 33.1476 -0.0000 26.2537 17.3493 -3.3383 -7.1876
 0.4982 37.2289 5.7817 -15.3684 20.3720 17.3127 20.9878 -15.1424 -0.6323 -5.0565 0.0000 0.0000 -14.2619 -26.9963 -4.8861 7.3529 -0.0000 -0.0000 -28.1238 13.2639 30.5907 26.4926 0.0000 0.0000 37.3950 27.3044 -36.2457 -3.1502 0.0000 0.0000 24.6106 -7.2743 3.2946 14.5435 0.4548 -19.1021 -49.7553 34.0170 79.2592 84.3327 0.0000 -0.5924 1.4500 2.8275 -27.1644 32.8623 0.0000 -24.3270 40.6183 10.6139 -8.8064 -36.4414 -21.8923 -72.4542 -82.5401 -0.0000 32.5657 -2.9707 22.6886 7.6625 33.1476 -0.0000 26.2537 17.3128 -3.3578 -7.1818
 0.5092 37.2281 5.7966 -15.4388 20.3077 17.3668 21.1161 -15.1226 -0.6697 -5.1243 -0.0000 0.0000 -14.2654 -26.9970 -4.8924 7.3439 -0.0000 0.0000 -29.2177 14.2964 30.9371 29.2673 -0.0000 -0.0000 37.1332 26.6803 -35.8956 -3.1552 -0.0000 -0.0000 24.6504 -7.3274 3.2468 14.5517 0.4027 -19.0713 -49.8561 34.1981 79.2747 84.2555 0.0000 -0.5662 1.4418 2.8141 -27.1431 32.8623 0.0000 -24.3270 40.6341 10.6361 -8.8156 -36.4595 -22.1008 -72.4241 -82.6537 -0.0000 32.5284 -2.8751 22.6157 7.4406 33.1476 -0.0000 26.2537 17.2440 -3.3896 -7.2339
 0.5202 37.2246 5.8132 -15.4966 20.2608 17.3850 21.2587 -15.0617 -0.6725 -5.2191 -0.0000 0.0000 -14.2657 -27.0225 -4.9147 7.3704 0.0000 -0.0000 -30.4295 15.3452 31.4049 32.1954 -0.0000 -0.0000 37.0524 26.2211 -35.6833 -3.1389 -0.0000 0.0000 24.6655 -7.3877 3.2446 14.5729 0.3575 -19.0495 -49.9426 34.3718 79.2678 84.2027 0.0000 -0.5719 1.4303 2.8043 -27.0368 32.8623 0.0000 -24.3270 40.6388 10.6652 -8.8554 -36.4356 -22.3345 -72.3781 -82.7858 -0.0000 32.4771 -2.7859 22.5815 7.2223 33.1476 -0.0000 26.2537 17.1815 -3.3960 -7.3077
